<mxfile host="app.diagrams.net" modified="2023-05-30T02:10:47.964Z" agent="Mozilla/5.0 (Windows NT 10.0; Win64; x64) AppleWebKit/537.36 (KHTML, like Gecko) Chrome/113.0.0.0 Safari/537.36" etag="bcFw1BPXHTzyJVCUhvyb" version="21.3.5" type="github">
  <diagram name="第 1 页" id="-ALs4O2s3Otpp36kydkP">
    <mxGraphModel dx="1452" dy="804" grid="1" gridSize="10" guides="1" tooltips="1" connect="1" arrows="1" fold="1" page="1" pageScale="1" pageWidth="827" pageHeight="1169" math="0" shadow="0">
      <root>
        <mxCell id="0" />
        <mxCell id="1" parent="0" />
        <mxCell id="pLcGzp6a1exoXwU1wgx8-2" value="SCB" style="strokeWidth=2;html=1;shape=mxgraph.flowchart.start_1;whiteSpace=wrap;align=left;horizontal=1;verticalAlign=top;" vertex="1" parent="1">
          <mxGeometry x="450" y="170" width="350" height="230" as="geometry" />
        </mxCell>
        <mxCell id="pLcGzp6a1exoXwU1wgx8-4" value="" style="edgeStyle=orthogonalEdgeStyle;rounded=0;orthogonalLoop=1;jettySize=auto;html=1;entryX=0;entryY=0.5;entryDx=0;entryDy=0;entryPerimeter=0;" edge="1" parent="1" source="pLcGzp6a1exoXwU1wgx8-1" target="5vpyDN43tX-CinXj2xsW-14">
          <mxGeometry relative="1" as="geometry">
            <mxPoint x="320" y="180" as="targetPoint" />
          </mxGeometry>
        </mxCell>
        <mxCell id="pLcGzp6a1exoXwU1wgx8-1" value="DBS" style="strokeWidth=2;html=1;shape=mxgraph.flowchart.start_1;whiteSpace=wrap;align=center;horizontal=1;verticalAlign=middle;" vertex="1" parent="1">
          <mxGeometry x="40" y="120" width="200" height="120" as="geometry" />
        </mxCell>
        <mxCell id="5vpyDN43tX-CinXj2xsW-13" value="渠道外账号" style="strokeWidth=2;html=1;shape=mxgraph.flowchart.start_1;whiteSpace=wrap;align=right;" parent="1" vertex="1">
          <mxGeometry x="450" y="210" width="250" height="160" as="geometry" />
        </mxCell>
        <mxCell id="5vpyDN43tX-CinXj2xsW-14" value="通道内(内部账号)" style="strokeWidth=2;html=1;shape=mxgraph.flowchart.start_1;whiteSpace=wrap;" parent="1" vertex="1">
          <mxGeometry x="470" y="260" width="115" height="85" as="geometry" />
        </mxCell>
      </root>
    </mxGraphModel>
  </diagram>
</mxfile>
